<svg width="149" height="77" viewBox="0 0 149 77" fill="none" xmlns="http://www.w3.org/2000/svg">
<g clip-path="url(#clip0_2144_5107)">
<path d="M38.3934 56.2443C41.7682 56.2443 43.5765 55.765 46.2907 54.7412V57.5488C43.5799 58.8705 41.0463 59.4525 38.3934 59.4525C35.7405 59.4525 33.2102 58.8739 30.4995 57.5488V54.7412C33.2102 55.765 35.0186 56.2443 38.3934 56.2443ZM23.9882 47.4381C27.363 47.4381 29.1713 46.9587 31.8855 45.935V48.7426C29.1713 50.0642 26.6411 50.6463 23.9882 50.6463C21.3353 50.6463 18.8051 50.0676 16.0943 48.7426V45.935C18.8051 46.9587 20.6134 47.4381 23.9882 47.4381ZM54.062 47.4381C57.4368 47.4381 59.2451 46.9587 61.9593 45.935V48.7426C59.2451 50.0642 56.7149 50.6463 54.062 50.6463C51.4091 50.6463 48.8789 50.0676 46.1681 48.7426V45.935C48.8789 46.9587 50.6872 47.4381 54.062 47.4381ZM38.3934 38.714C41.7682 38.714 43.5765 38.2346 46.2907 37.2109V40.0185C43.5799 41.3435 41.0463 41.9222 38.3934 41.9222C35.7405 41.9222 33.2102 41.3401 30.4995 40.0185V37.2109C33.2102 38.2346 35.0186 38.714 38.3934 38.714ZM23.9882 29.9933C27.363 29.9933 29.1713 29.514 31.8855 28.4902V31.2978C29.1713 32.6195 26.6411 33.2015 23.9882 33.2015C21.3353 33.2015 18.8051 32.6229 16.0943 31.2978V28.4902C18.8051 29.514 20.6134 29.9933 23.9882 29.9933ZM54.062 29.9933C57.4368 29.9933 59.2451 29.514 61.9593 28.4902V31.2978C59.2451 32.6195 56.7149 33.2015 54.062 33.2015C51.4091 33.2015 48.8789 32.6229 46.1681 31.2978V28.4902C48.8789 29.514 50.6872 29.9933 54.062 29.9933ZM38.3934 21.1871C41.7682 21.1871 43.5765 20.7077 46.2907 19.684V22.4916C43.5799 23.8166 41.0463 24.3953 38.3934 24.3953C35.7405 24.3953 33.2102 23.8132 30.4995 22.4916V19.684C33.2102 20.7077 35.0186 21.1871 38.3934 21.1871ZM38.5773 0C17.2692 0 0 17.2359 0 38.4983C0 59.7607 17.2692 76.9966 38.5773 76.9966C59.8854 76.9966 77.1512 59.7607 77.1512 38.4983C77.1512 17.2359 59.882 0 38.5773 0Z" fill="#318EFF"/>
<path d="M94.0364 72.5693V73.6513C93.311 74.045 92.4767 74.2402 91.5333 74.2402C90.7637 74.2402 90.1201 74.0861 89.5786 73.778C89.0439 73.4698 88.6182 73.0453 88.3083 72.5043C87.995 71.9633 87.8418 71.3778 87.8418 70.7478C87.8418 69.7481 88.1994 68.9058 88.9111 68.2278C89.6263 67.5465 90.5117 67.2041 91.5538 67.2041C92.2791 67.2041 93.0862 67.3924 93.9649 67.769V68.827C93.1578 68.3682 92.3779 68.1388 91.6083 68.1388C90.8386 68.1388 90.1677 68.3888 89.6399 68.8852C89.1223 69.3817 88.8634 70.0014 88.8634 70.7478C88.8634 71.4942 89.1223 72.1208 89.6331 72.607C90.1507 73.0932 90.8012 73.3363 91.6014 73.3363C92.4017 73.3363 93.2429 73.0795 94.0398 72.5693" fill="#575757"/>
<path d="M95.252 67.2935H99.1512V68.17H96.2327V70.2654H99.0525V71.1419H96.2327V73.2784H99.2432V74.1515H95.252V67.2935Z" fill="#575757"/>
<path d="M105.764 67.2935H106.697V74.1618H105.853L101.249 68.8787V74.1618H100.322V67.2935H101.119L105.764 72.6245V67.2935Z" fill="#575757"/>
<path d="M107.586 67.2832H113.338V68.1597H110.934V74.1618H109.946V68.1597H107.586V67.2832Z" fill="#575757"/>
<path d="M115.576 68.1289H115.276V70.2962H115.647C116.145 70.2962 116.492 70.2551 116.672 70.1695C116.863 70.0839 117.01 69.9573 117.108 69.7861C117.217 69.6114 117.272 69.4163 117.272 69.1971C117.272 68.978 117.207 68.7863 117.098 68.6117C116.979 68.4336 116.815 68.3104 116.608 68.2385C116.4 68.1666 116.056 68.1289 115.572 68.1289M114.285 74.1618V67.2935H116.019C116.706 67.2935 117.262 67.4647 117.67 67.807C118.079 68.1529 118.287 68.6185 118.287 69.204C118.287 69.6046 118.188 69.947 117.987 70.2414C117.786 70.5325 117.497 70.7516 117.125 70.8954C117.343 71.0392 117.561 71.2378 117.769 71.4877C117.977 71.7377 118.276 72.1725 118.658 72.7888C118.893 73.1791 119.083 73.4736 119.23 73.6688L119.594 74.1584H118.423L118.123 73.7064C118.123 73.7064 118.096 73.6619 118.069 73.6208L117.868 73.3503L117.568 72.8504L117.231 72.3129C117.03 72.0321 116.843 71.8062 116.669 71.6384C116.506 71.4706 116.352 71.3508 116.216 71.2789C116.08 71.2035 115.852 71.1659 115.528 71.1659H115.273V74.1549H114.285V74.1618Z" fill="#575757"/>
<path d="M120.357 67.2935H124.257V68.17H121.345V70.2654H124.168V71.1419H121.345V73.2784H124.359V74.1515H120.357V67.2935Z" fill="#575757"/>
<path d="M89.4172 57.2373H89.1209V59.4046H89.4955C89.9927 59.4046 90.3367 59.3635 90.5171 59.2779C90.7079 59.1923 90.8543 59.0656 90.953 58.8945C91.062 58.7198 91.1063 58.5247 91.1063 58.3055C91.1063 58.0864 91.0518 57.8947 90.9428 57.7201C90.8236 57.542 90.6602 57.4188 90.4524 57.3469C90.2447 57.275 89.9008 57.2373 89.4172 57.2373ZM88.1367 63.2702V56.4019H89.8599C90.5546 56.4019 91.1063 56.5765 91.515 56.9189C91.9236 57.2647 92.1314 57.7303 92.1314 58.3158C92.1314 58.7164 92.0326 59.0588 91.8317 59.3533C91.6307 59.6443 91.3413 59.8634 90.9701 60.0072C91.188 60.151 91.406 60.3496 91.6137 60.5996C91.8214 60.8495 92.1211 61.2843 92.5025 61.9006C92.7375 62.291 92.9282 62.5854 93.0747 62.7806L93.4391 63.2702H92.271L91.9713 62.8182C91.9713 62.8182 91.944 62.7737 91.9168 62.7326L91.7159 62.4622L91.4162 61.9623L91.0825 61.4281C90.8815 61.1474 90.6942 60.9214 90.5206 60.7536C90.3571 60.5859 90.2039 60.466 90.0676 60.3941C89.9314 60.3188 89.7032 60.2811 89.3831 60.2811H89.1243V63.2702H88.1401H88.1367Z" fill="#575757"/>
<path d="M94.1992 56.4019H98.0985V57.2784H95.1868V59.3738H97.9997V60.2537H95.1868V62.3868H98.2007V63.2633H94.1992V56.4019Z" fill="#575757"/>
<path d="M100.949 60.3908L100.206 59.9389C99.7328 59.6547 99.399 59.3705 99.1981 59.0966C98.9972 58.8193 98.8984 58.4974 98.8984 58.1379C98.8984 57.5969 99.0891 57.1587 99.4603 56.8231C99.8418 56.4842 100.332 56.3164 100.932 56.3164C101.531 56.3164 102.038 56.4773 102.508 56.7958V57.9119C102.018 57.436 101.483 57.1998 100.911 57.1998C100.584 57.1998 100.322 57.2751 100.114 57.4258C99.9133 57.573 99.8043 57.7647 99.8043 57.9975C99.8043 58.2064 99.886 58.3981 100.032 58.5762C100.186 58.7576 100.431 58.946 100.768 59.1411L101.521 59.5828C102.365 60.0793 102.781 60.7161 102.781 61.4899C102.781 62.0412 102.6 62.4897 102.229 62.8321C101.858 63.1779 101.378 63.3491 100.788 63.3491C100.107 63.3491 99.491 63.1402 98.9291 62.7225V61.4728C99.4637 62.1439 100.08 62.4794 100.778 62.4794C101.088 62.4794 101.34 62.3938 101.548 62.2261C101.756 62.0514 101.854 61.8357 101.854 61.5755C101.854 61.1544 101.555 60.7606 100.949 60.384" fill="#575757"/>
<path d="M107.287 57.2375C106.497 57.2375 105.847 57.484 105.336 57.9736C104.828 58.4666 104.573 59.0932 104.573 59.8567C104.573 60.6203 104.835 61.2126 105.343 61.7057C105.85 62.1953 106.487 62.4418 107.246 62.4418C108.006 62.4418 108.66 62.1918 109.17 61.6885C109.688 61.1852 109.94 60.5621 109.95 59.8157C109.95 59.0898 109.688 58.4769 109.17 57.9805C108.663 57.484 108.026 57.234 107.284 57.234M107.239 56.2993C108.309 56.2993 109.191 56.6349 109.896 57.3094C110.604 57.9805 110.958 58.8262 110.958 59.8362C110.958 60.8463 110.604 61.6885 109.889 62.3528C109.174 63.0136 108.275 63.3457 107.185 63.3457C106.095 63.3457 105.281 63.0136 104.59 62.3528C103.902 61.6885 103.555 60.8531 103.555 59.8567C103.555 58.8604 103.899 57.9805 104.597 57.3094C105.295 56.6383 106.174 56.2993 107.236 56.2993" fill="#575757"/>
<path d="M116.955 56.4019H117.942V60.3017C117.942 60.829 117.905 61.2261 117.823 61.4966C117.751 61.7671 117.66 61.9897 117.54 62.1711C117.431 62.3492 117.285 62.5067 117.125 62.647C116.58 63.1161 115.875 63.3489 114.993 63.3489C114.111 63.3489 113.369 63.1161 112.834 62.6505C112.67 62.5067 112.524 62.3457 112.415 62.1677C112.296 61.9897 112.207 61.7671 112.132 61.5103C112.061 61.2535 112.023 60.8461 112.023 60.2914V56.4019H113.011V60.3017C113.011 60.9488 113.083 61.3973 113.229 61.6473C113.382 61.9006 113.6 62.1026 113.91 62.2567C114.21 62.4074 114.564 62.4827 114.979 62.4827C115.558 62.4827 116.042 62.332 116.403 62.0273C116.594 61.8664 116.737 61.6712 116.818 61.4487C116.91 61.2261 116.944 60.8461 116.944 60.3017V56.4019H116.955Z" fill="#575757"/>
<path d="M120.619 57.2373H120.329V59.4046H120.701C121.198 59.4046 121.545 59.3635 121.726 59.2779C121.916 59.1923 122.063 59.0656 122.162 58.8945C122.26 58.7198 122.315 58.5247 122.315 58.3055C122.315 58.0864 122.26 57.8947 122.141 57.7201C122.032 57.542 121.869 57.4188 121.661 57.3469C121.453 57.275 121.109 57.2373 120.619 57.2373ZM119.342 63.2702V56.4019H121.065C121.763 56.4019 122.318 56.5765 122.723 56.9189C123.132 57.2647 123.34 57.7303 123.34 58.3158C123.34 58.7164 123.241 59.0588 123.04 59.3533C122.839 59.6443 122.55 59.8634 122.179 60.0072C122.397 60.151 122.614 60.3496 122.822 60.5996C123.03 60.8495 123.33 61.2843 123.701 61.9006C123.946 62.291 124.137 62.5854 124.28 62.7806L124.644 63.2702H123.476L123.176 62.8182C123.176 62.8182 123.149 62.7737 123.112 62.7326L122.921 62.4622L122.614 61.9623L122.288 61.4281C122.087 61.1474 121.899 60.9214 121.726 60.7536C121.562 60.5859 121.409 60.466 121.273 60.3941C121.136 60.3188 120.908 60.2811 120.585 60.2811H120.329V63.2702H119.342Z" fill="#575757"/>
<path d="M131.339 61.6782V62.7602C130.614 63.1539 129.779 63.3491 128.836 63.3491C128.066 63.3491 127.413 63.195 126.878 62.8869C126.343 62.5787 125.924 62.1542 125.608 61.6132C125.298 61.0722 125.145 60.4867 125.145 59.8567C125.145 58.8569 125.499 58.0147 126.207 57.3333C126.922 56.652 127.811 56.3096 128.857 56.3096C129.582 56.3096 130.379 56.4979 131.268 56.8745V57.9325C130.46 57.4737 129.67 57.2443 128.911 57.2443C128.152 57.2443 127.46 57.4942 126.943 57.9907C126.425 58.4872 126.163 59.1069 126.163 59.8567C126.163 60.6066 126.418 61.2297 126.932 61.7125C127.44 62.1987 128.094 62.4383 128.891 62.4383C129.687 62.4383 130.542 62.185 131.339 61.6714" fill="#575757"/>
<path d="M132.549 56.4019H136.455V57.2784H133.536V59.3738H136.356V60.2537H133.536V62.3868H136.547V63.2633H132.549V56.4019Z" fill="#575757"/>
<path d="M90.0101 49.3279H89.0907V51.5055H90.0646C90.5993 51.5055 90.9637 51.4644 91.1544 51.3822C91.3553 51.2966 91.5085 51.1665 91.6175 50.9919C91.7367 50.8139 91.798 50.6221 91.798 50.4201C91.798 50.2181 91.7333 50.0161 91.6073 49.8449C91.4881 49.6737 91.3178 49.5436 91.0897 49.458C90.8615 49.3724 90.5005 49.3313 90.0101 49.3313M89.9386 46.3902H89.0941V48.4548H89.7513C90.2792 48.4548 90.6504 48.3555 90.8683 48.1535C91.0965 47.9549 91.2055 47.6947 91.2055 47.3763C91.2055 46.7189 90.7866 46.3868 89.9454 46.3868M90.446 52.3786H88.1133V45.5103H89.9182C90.4801 45.5103 90.9262 45.589 91.2531 45.7397C91.5698 45.8903 91.8048 46.0992 91.9785 46.3697C92.142 46.6333 92.2339 46.9414 92.2339 47.2941C92.2339 47.9686 91.8797 48.4514 91.1816 48.7424C91.6788 48.8383 92.0807 49.0471 92.3803 49.3621C92.68 49.6806 92.8231 50.0606 92.8231 50.5023C92.8231 50.8515 92.7311 51.1665 92.5506 51.4404C92.3701 51.7144 92.1079 51.9403 91.7537 52.115C91.4098 52.2896 90.9739 52.3752 90.4494 52.3752" fill="#575757"/>
<path d="M94.7752 45.5137H93.791V52.382H94.7752V45.5137Z" fill="#575757"/>
<path d="M99.6954 51.5536C98.9326 51.5536 98.2992 51.3071 97.7816 50.8175C97.2742 50.3244 97.0187 49.7081 97.0187 48.9686C97.0187 48.229 97.2742 47.5785 97.7816 47.0854C98.289 46.5924 98.9326 46.3493 99.7227 46.3493C100.513 46.3493 101.102 46.5992 101.62 47.0957C102.137 47.5921 102.389 48.2016 102.389 48.9309C102.389 49.6602 102.134 50.3039 101.62 50.8038C101.102 51.3037 100.468 51.5536 99.6954 51.5536ZM99.6852 45.4146C98.6227 45.4146 97.7441 45.7501 97.046 46.4246C96.3479 47.0957 96.0039 47.9448 96.0039 48.972C96.0039 49.9991 96.3479 50.8038 97.0392 51.4714C97.7271 52.1322 98.5989 52.4644 99.6342 52.4644C100.724 52.4644 101.62 52.1322 102.338 51.4714C103.053 50.8038 103.407 49.9649 103.407 48.9549C103.407 47.9448 103.053 47.0991 102.345 46.428C101.637 45.7569 100.748 45.418 99.6886 45.418" fill="#575757"/>
<path d="M105.601 45.5137H104.613V52.382H108.693V51.4884H105.601V45.5137Z" fill="#575757"/>
<path d="M112.946 51.5536C112.183 51.5536 111.55 51.3071 111.042 50.8175C110.525 50.3244 110.273 49.7081 110.273 48.9686C110.273 48.229 110.528 47.5785 111.035 47.0854C111.543 46.5924 112.197 46.3493 112.987 46.3493C113.729 46.3493 114.366 46.5992 114.873 47.0957C115.391 47.5921 115.643 48.2016 115.643 48.9309C115.643 49.6602 115.388 50.3039 114.873 50.8038C114.366 51.3037 113.722 51.5536 112.949 51.5536M112.939 45.4146C111.877 45.4146 110.998 45.7501 110.3 46.4246C109.602 47.0957 109.258 47.9448 109.258 48.972C109.258 49.9991 109.602 50.8038 110.293 51.4714C110.981 52.1322 111.853 52.4644 112.888 52.4644C113.978 52.4644 114.873 52.1322 115.592 51.4714C116.307 50.8038 116.661 49.9649 116.661 48.9549C116.661 47.9448 116.307 47.0991 115.599 46.428C114.89 45.7569 114.012 45.418 112.943 45.418" fill="#575757"/>
<path d="M121.338 45.4248C120.269 45.4248 119.387 45.7638 118.682 46.4486C117.973 47.1299 117.619 47.9859 117.619 49.0096C117.619 50.0334 117.963 50.8038 118.644 51.468C119.325 52.1322 120.231 52.4609 121.375 52.4609C122.21 52.4609 123.054 52.276 123.895 51.9097V48.9994H121.583V49.8724H122.908V51.3036L122.816 51.3344C122.271 51.5125 121.801 51.6049 121.403 51.6049C120.596 51.6049 119.931 51.3584 119.417 50.8654C118.9 50.3689 118.648 49.7321 118.648 48.9514C118.648 48.1708 118.903 47.5784 119.417 47.0683C119.935 46.5581 120.568 46.3013 121.314 46.3013C122.131 46.3013 122.939 46.5376 123.763 47.0135V46.0103C123.228 45.7877 122.792 45.6337 122.438 45.5515C122.094 45.4659 121.723 45.4248 121.341 45.4248" fill="#575757"/>
<path d="M126.333 45.5137H125.346V52.382H126.333V45.5137Z" fill="#575757"/>
<path d="M131.305 45.4248C130.263 45.4248 129.374 45.7638 128.655 46.4486C127.947 47.1299 127.586 47.9688 127.586 48.972C127.586 49.5985 127.749 50.1874 128.056 50.725C128.373 51.266 128.791 51.6905 129.326 51.9987C129.861 52.3068 130.515 52.4609 131.284 52.4609C132.228 52.4609 133.062 52.2623 133.787 51.8686V50.7901C132.99 51.3002 132.173 51.557 131.339 51.557C130.504 51.557 129.888 51.3139 129.381 50.8311C128.863 50.3449 128.611 49.7252 128.611 48.972C128.611 48.2187 128.873 47.6024 129.391 47.1094C129.908 46.6095 130.569 46.363 131.359 46.363C132.149 46.363 132.909 46.5924 133.716 47.0512V45.9932C132.827 45.6165 132.03 45.4282 131.305 45.4282" fill="#575757"/>
<path d="M136.754 49.4718L137.779 46.9826L138.896 49.4718H136.754ZM138.144 45.4761H137.456L134.5 52.3855H135.508L136.38 50.3483H139.302L140.218 52.3855H141.233L138.151 45.4761H138.144Z" fill="#575757"/>
<path d="M142.97 45.5137H141.979V52.382H146.062V51.4884H142.97V45.5137Z" fill="#575757"/>
<path d="M94.4985 34.6226H93.5824L91.3075 37.4473L89.0122 34.6226H88.0859V41.4909H89.0701V36.1462L91.2054 38.8031H91.3892L93.5109 36.1462V41.4909H94.4985V34.6226Z" fill="#575757"/>
<path d="M97.4824 38.5806L98.5177 36.0915L99.6245 38.5806H97.4859H97.4824ZM98.8787 34.585H98.1806L95.2246 41.4944H96.2326L97.1044 39.4572H100.033L100.949 41.4944H101.957L98.8821 34.585H98.8787Z" fill="#575757"/>
<path d="M103.725 37.6253V35.458H104.025C104.505 35.458 104.849 35.4956 105.06 35.5676C105.268 35.6395 105.431 35.7627 105.55 35.9408C105.669 36.1154 105.724 36.3105 105.724 36.5262C105.724 36.7419 105.669 36.944 105.571 37.1186C105.462 37.2898 105.315 37.4165 105.135 37.5021C104.944 37.5877 104.61 37.6287 104.11 37.6287H103.728L103.725 37.6253ZM104.467 34.6226H102.744V41.4909H103.725V38.5018H103.987C104.304 38.5018 104.532 38.5395 104.668 38.6148C104.804 38.6867 104.958 38.8066 105.131 38.9743C105.305 39.1421 105.486 39.3681 105.693 39.6488L106.02 40.1864L106.33 40.6863L106.521 40.9568C106.548 40.9944 106.565 41.0252 106.575 41.0424L106.875 41.4943H108.053L107.689 41.0047C107.542 40.8061 107.345 40.5117 107.11 40.1248C106.729 39.505 106.439 39.0702 106.221 38.8203C106.013 38.5703 105.795 38.3751 105.577 38.2313C105.949 38.0875 106.238 37.8684 106.439 37.5774C106.64 37.2863 106.739 36.9405 106.739 36.5399C106.739 35.9545 106.538 35.4888 106.122 35.143C105.714 34.7972 105.169 34.626 104.471 34.626" fill="#575757"/>
<path d="M108.818 41.4909H109.799H108.818V34.6226V41.4909Z" fill="#575757"/>
<path d="M109.803 34.6226H108.818V41.4909H109.803V34.6226Z" fill="#575757"/>
<path d="M117.734 34.6226H116.791V39.9536L112.156 34.6226H111.359V41.4909H112.286V36.2044L116.883 41.4909H117.734V34.6226Z" fill="#575757"/>
<path d="M123.104 34.6226H119.205V41.4806H123.203V40.6075H120.193V38.471H123.006V37.5945H120.193V35.4991H123.104V34.6226Z" fill="#575757"/>
<path d="M92.0067 23.7344H88.1074V30.5924H92.1055V29.7159H89.0916V27.5828H91.9045V26.7029H89.0916V24.6075H92.0067V23.7344Z" fill="#575757"/>
<path d="M98.9251 23.7344H97.9375V27.6342C97.9375 28.1752 97.9 28.5552 97.8115 28.7812C97.7298 29.0038 97.5833 29.1955 97.3926 29.3598C97.0214 29.6646 96.5481 29.8152 95.9589 29.8152C95.5503 29.8152 95.1961 29.7399 94.8964 29.5892C94.5865 29.4352 94.3617 29.2297 94.2153 28.9798C94.0689 28.7298 93.9974 28.2779 93.9974 27.6342V23.7344H93.0098V27.6239C93.0098 28.1786 93.0472 28.5826 93.1187 28.8428C93.1903 29.1031 93.2822 29.3222 93.3912 29.5002C93.5104 29.6748 93.6534 29.8392 93.8169 29.983C94.3515 30.4486 95.0769 30.6815 95.9759 30.6815C96.875 30.6815 97.5629 30.4486 98.1078 29.9761C98.2712 29.8358 98.4177 29.6748 98.5232 29.5002C98.6424 29.3188 98.731 29.0962 98.8127 28.8257C98.8842 28.5552 98.9217 28.1581 98.9217 27.6308V23.731L98.9251 23.7344Z" fill="#575757"/>
<path d="M101.31 26.7371V24.5698H101.599C102.079 24.5698 102.434 24.6075 102.635 24.6794C102.853 24.7513 103.006 24.8745 103.125 25.0526C103.244 25.2272 103.299 25.4189 103.299 25.6381C103.299 25.8572 103.244 26.0524 103.145 26.227C103.047 26.3982 102.9 26.5249 102.71 26.6104C102.529 26.696 102.185 26.7371 101.684 26.7371H101.313H101.31ZM102.045 23.7344H100.322V30.6027H101.31V27.6136H101.565C101.882 27.6136 102.117 27.6513 102.246 27.7266C102.393 27.7985 102.546 27.9184 102.71 28.0861C102.883 28.2539 103.064 28.4799 103.271 28.7607L103.598 29.2948L103.908 29.7981L104.099 30.0686C104.126 30.1062 104.153 30.1371 104.164 30.1542L104.463 30.6061H105.635L105.27 30.1165C105.124 29.9179 104.933 29.6269 104.691 29.2366C104.31 28.6203 104.021 28.182 103.813 27.9355C103.595 27.6855 103.387 27.4904 103.159 27.3466C103.54 27.2028 103.82 26.9837 104.021 26.6926C104.228 26.4016 104.331 26.0524 104.331 25.6552C104.331 25.0697 104.123 24.604 103.714 24.2582C103.305 23.9158 102.754 23.7446 102.056 23.7446" fill="#575757"/>
<path d="M109.172 29.7743C108.403 29.7743 107.766 29.5278 107.259 29.0382C106.751 28.5486 106.496 27.9288 106.496 27.1893C106.496 26.4497 106.751 25.7992 107.259 25.3061C107.766 24.8165 108.41 24.5666 109.2 24.5666C109.99 24.5666 110.579 24.8165 111.097 25.313C111.604 25.8094 111.866 26.4189 111.866 27.1482C111.866 27.8775 111.604 28.5212 111.097 29.0211C110.579 29.5209 109.945 29.7743 109.172 29.7743ZM109.162 23.6318C108.093 23.6318 107.211 23.9674 106.523 24.6419C105.825 25.313 105.471 26.1621 105.471 27.1893C105.471 28.2164 105.815 29.021 106.506 29.6853C107.204 30.3461 108.066 30.6782 109.108 30.6782C110.15 30.6782 111.093 30.3461 111.801 29.6853C112.517 29.021 112.881 28.1788 112.881 27.1687C112.881 26.1587 112.527 25.313 111.812 24.6419C111.114 23.9708 110.225 23.6318 109.162 23.6318Z" fill="#575757"/>
<path d="M115.023 26.7474V24.6006H116.038C116.916 24.6006 117.352 24.9533 117.352 25.6586C117.352 26.0079 117.243 26.2783 117.025 26.4701C116.807 26.6584 116.501 26.7508 116.099 26.7508H115.019L115.023 26.7474ZM116.211 23.7241H114.035V30.6027H115.023V27.6239H115.748C116.402 27.6239 116.899 27.5555 117.243 27.4185C117.597 27.2747 117.87 27.0521 118.067 26.744C118.268 26.4358 118.367 26.0832 118.367 25.6826C118.367 25.0868 118.176 24.6109 117.785 24.2582C117.386 23.9022 116.869 23.7275 116.208 23.7275" fill="#575757"/>
<path d="M123.132 23.7344H119.232V30.5924H123.224V29.7159H120.21V27.5828H123.033V26.7029H120.21V24.6075H123.132V23.7344Z" fill="#575757"/>
<path d="M125.782 27.689L126.807 25.1999L127.914 27.689H125.782ZM127.172 23.6934H126.474L123.518 30.6028H124.532L125.394 28.5656H128.323L129.239 30.6028H130.247L127.172 23.6934Z" fill="#575757"/>
<path d="M137.408 23.7344H136.475V29.062L131.83 23.7344H131.033V30.5993H131.956V25.3162L136.564 30.5993H137.408V23.7344Z" fill="#575757"/>
<path d="M96.6747 6.32715H88.1133V18.0745H96.7939V15.9209H91.042V13.0962H96.4124V10.9426H91.042V8.48078H96.6747V6.32715Z" fill="#318EFF"/>
<path d="M111.704 6.32715H109.146L105.366 10.6858L101.593 6.32715H99.0352V18.0745H101.974V10.7371L105.148 14.4212H105.591L108.765 10.7371V18.0745H111.704V6.32715Z" fill="#318EFF"/>
<path d="M117.238 15.9209V13.1475H119.288C120.33 13.1475 121.083 13.6132 121.083 14.476C121.083 15.4929 120.51 15.9209 118.896 15.9209H117.238ZM117.238 10.9973V8.4842H118.77C119.84 8.4842 120.275 9.12104 120.275 9.72365C120.275 10.3263 119.84 10.9973 118.77 10.9973H117.238ZM119.397 6.33057H114.299V18.0745H120.03C123.466 18.0745 124.195 15.9757 124.195 14.6301C124.195 13.2845 123.361 12.045 121.692 11.6171C122.673 11.1343 123.296 10.2578 123.296 9.27512C123.296 7.96719 122.172 6.33057 119.397 6.33057Z" fill="#318EFF"/>
<path d="M129.283 11.1514V8.48078H130.771C131.867 8.48078 132.44 8.92931 132.44 9.80583C132.44 10.8056 131.649 11.1514 130.836 11.1514H129.286H129.283ZM131.612 6.32715H126.344V18.0711H129.283V13.3016H130.127C131.714 13.3016 132.188 15.558 133.437 18.0711H136.666C135.014 14.6267 134.653 13.1818 133.437 12.5792C134.789 11.9595 135.46 10.9939 135.46 9.70311C135.46 7.94665 134.027 6.32715 131.615 6.32715" fill="#318EFF"/>
<path d="M144.601 6.17334C140.092 6.17334 137.527 9.10077 137.527 12.2371C137.527 15.3734 139.802 18.2323 144.376 18.2323C146.116 18.2323 147.359 17.9036 149 17.0613V14.4968C147.315 15.3083 146.269 15.7876 144.737 15.7876C142.288 15.7876 140.548 14.288 140.548 12.1891C140.548 10.0903 142.309 8.62485 144.812 8.62485C146.252 8.62485 147.57 9.10762 148.864 9.83006V7.2142C147.703 6.526 146.242 6.18019 144.601 6.18019" fill="#318EFF"/>
</g>
<defs>
<clipPath id="clip0_2144_5107">
<rect width="149" height="77" fill="white"/>
</clipPath>
</defs>
</svg>
